<svg width="57" height="55" viewBox="0 0 57 55" fill="none" xmlns="http://www.w3.org/2000/svg">
<path d="M12.9873 52.6981L1.69235 44.0355L1.19587 43.6669C1.11313 43.6055 0.960047 43.3843 1.0097 42.9911L3.30591 19.2766C3.3266 19.1128 3.45486 18.7483 3.80239 18.6008L17.4556 13.8702C17.7038 13.7883 18.1879 13.7596 18.1382 14.3003L14.2905 52.3294C14.2491 52.739 13.9306 53.3861 12.9873 52.6981Z" stroke="white" stroke-width="2"/>
<path d="M22.6066 38.6905C22.2963 38.7315 21.7005 38.6168 21.7998 37.8304L25.3993 1.3372C25.4406 1.15289 25.6475 0.845711 26.144 1.09146L38.4318 7.29653C38.618 7.39893 38.978 7.70202 38.9283 8.09521L36.1356 35.5573C36.1149 35.7006 35.9867 36.0119 35.6391 36.1102L22.6066 38.6905Z" stroke="white" stroke-width="2"/>
<path d="M42.2796 34.6357C42.052 34.6767 41.6093 34.6357 41.659 34.1443L43.6449 16.0205C43.6863 15.8362 43.8807 15.5167 44.3275 15.7133L55.5604 21.4883C55.7259 21.5703 56.0445 21.8324 55.9948 22.2256L55.0639 31.5025C55.0432 31.6868 54.8777 32.08 54.3812 32.1783L42.2796 34.6357Z" stroke="white" stroke-width="2"/>
</svg>
