<?xml version="1.0" encoding="UTF-8"?>
<svg id="Layer_1" data-name="Layer 1" xmlns="http://www.w3.org/2000/svg" viewBox="0 0 595.28 810.34">
  <defs>
    <style>
      .cls-1 {
        fill: #d0922a;
      }
    </style>
  </defs>
  <polygon points="297.64 544.41 297.49 544.57 297.64 544.57 297.64 544.41"/>
  <polygon class="cls-1" points="57.22 701.33 57.22 117.41 113.87 57.22 409.91 57.22 466.51 117.04 466.51 325.43 409.91 385.26 100.03 385.26 100.03 685.72 100.03 701.33 157.26 701.33 157.26 442.48 434.52 442.48 523.73 348.22 523.73 94.26 434.52 0 89.16 0 0 94.73 0 701.33 15.61 701.33 57.22 701.33"/>
  <polygon class="cls-1" points="527.13 390.9 476.98 443.81 521.72 491.09 521.72 687.1 474.02 737.51 2.1 737.51 1.89 810.34 505.33 810.34 594.55 716.13 594.55 462.06 527.13 390.9"/>
</svg>